PathFileType	4	(X/Y/Z)	/Users/itak/Documents/Research/Walk-IL/dataset/trc/00281_00010.trc
DataRate	CameraRate	NumFrames	NumMarkers	Units	OrigDataRate	OrigDataStartFrame	OrigNumFrames
100.000000	100.000000	4	54	mm	100.000000	0	614
Frame#	Time	RPSI			LPSI			L3			STRN			T10			C7			CLAV			RBAK			LBAK			LSHO			LUPA			LAEL			LAOL			LWTS			LWPS			LFRA			LIFD			LHPS			LHTS			RSHO			RUPA			RAEL			RAOL			RWTS			RWPS			RFRA			RIFD			RHTS			RHPS			RBHD			LFHD			RFHD			LBHD			LHIP			RASI			LASI			LKNE			LTHI			LANK			LTIP			LTOE			LMT1			LMT5			LHEE			RKNE			RTHI			RANK			RTIP			RTOE			RMT1			RMT5			RHEE			RHIP			*53			
		X1	Y1	Z1	X2	Y2	Z2	X3	Y3	Z3	X4	Y4	Z4	X5	Y5	Z5	X6	Y6	Z6	X7	Y7	Z7	X8	Y8	Z8	X9	Y9	Z9	X10	Y10	Z10	X11	Y11	Z11	X12	Y12	Z12	X13	Y13	Z13	X14	Y14	Z14	X15	Y15	Z15	X16	Y16	Z16	X17	Y17	Z17	X18	Y18	Z18	X19	Y19	Z19	X20	Y20	Z20	X21	Y21	Z21	X22	Y22	Z22	X23	Y23	Z23	X24	Y24	Z24	X25	Y25	Z25	X26	Y26	Z26	X27	Y27	Z27	X28	Y28	Z28	X29	Y29	Z29	X30	Y30	Z30	X31	Y31	Z31	X32	Y32	Z32	X33	Y33	Z33	X34	Y34	Z34	X35	Y35	Z35	X36	Y36	Z36	X37	Y37	Z37	X38	Y38	Z38	X39	Y39	Z39	X40	Y40	Z40	X41	Y41	Z41	X42	Y42	Z42	X43	Y43	Z43	X44	Y44	Z44	X45	Y45	Z45	X46	Y46	Z46	X47	Y47	Z47	X48	Y48	Z48	X49	Y49	Z49	X50	Y50	Z50	X51	Y51	Z51	X52	Y52	Z52	X53	Y53	Z53	X54	Y54	Z54	

1	0	-64.17380523681641	1008.486694335938	1276.51025390625	-61.33022689819336	991.2706909179688	1101.953857421875	-38.89322280883789	1073.4990234375	1186.63525390625	231.2471160888672	1228.377563476562	1178.508911132812	-40.30595016479492	1196.801879882812	1183.769775390625	32.52982330322266	1434.669189453125	1163.154907226562	178.3398590087891	1333.933837890625	1173.535278320312	-34.25566101074219	1305.40625	1244.546875	12.22533702850342	1399.515991210938	1059.555297851562	104.6913452148438	1393.557006835938	1009.407165527344	65.70208740234375	1279.138305664062	937.3831787109375	56.88133239746094	1075.129760742188	925.3463134765625	-12.90703296661377	1068.155639648438	977.5676879882812	127.0847320556641	855.0333251953125	987.739501953125	97.28565979003906	841.0906372070312	923.2884521484375	68.02330017089844	971.0165405273438	921.5517578125	127.9342651367188	668.0772094726562	994.9846801757812	99.74253082275391	752.904296875	930.1644897460938	151.2726745605469	755.8915405273438	972.3517456054688	99.92533111572266	1405.06005859375	1323.359008789062	90.48105621337891	1347.017333984375	1391.021240234375	86.34841156005859	1078.082763671875	1444.118896484375	32.52345657348633	1072.823120117188	1365.638671875	165.6310577392578	853.4631958007812	1365.482421875	140.9832000732422	845.7915649414062	1446.066650390625	111.9226379394531	1009.721252441406	1448.839111328125	159.4221038818359	668.3412475585938	1353.83544921875	193.0836334228516	735.0396728515625	1369.931396484375	159.7847290039062	733.4835815429688	1431.915649414062	71.43805694580078	1590.796508789062	1228.48779296875	236.0387115478516	1611.482177734375	1095.9404296875	242.0611877441406	1615.676147460938	1187.912109375	62.61705017089844	1574.088012695312	1083.44384765625	7.432874202728271	938.5977783203125	1008.711303710938	155.7337493896484	953.5455322265625	1312.544799804688	145.5570220947266	946.4450073242188	1061.728881835938	165.7881927490234	485.0953369140625	1028.527587890625	124.250602722168	622.4884033203125	1011.647338867188	-65.03985595703125	91.8746337890625	1042.222412109375	48.59585571289062	283.72265625	1024.285888671875	126.938232421875	35.49675369262695	1101.149658203125	57.33829879760742	38.08162689208984	1140.060668945312	50.84582138061523	52.5889892578125	1029.75390625	-112.0844879150391	99.33547973632812	1099.72509765625	43.55970764160156	480.0842895507812	1338.126220703125	82.88117218017578	740.6271362304688	1377.42529296875	-71.24124908447266	45.02019119262695	1293.95068359375	37.61555099487305	355.0129699707031	1321.009765625	127.2273025512695	43.43337249755859	1247.535522460938	72.32028961181641	44.33200836181641	1206.369995117188	31.9420280456543	36.78640747070312	1317.361450195312	-121.2680740356445	44.36179351806641	1239.540771484375	32.71653747558594	956.2348022460938	1382.365112304688	nan	nan	nan	
2	0.01	-62.9511833190918	1008.106689453125	1276.551513671875	-60.48720550537109	990.6513671875	1102.092163085938	-37.82804107666016	1073.3984375	1186.888061523438	232.7912139892578	1227.740356445312	1178.07080078125	-38.88339996337891	1196.9111328125	1184.137939453125	34.51773071289062	1434.492553710938	1163.4833984375	180.1128082275391	1333.384155273438	1173.279541015625	-32.42394256591797	1305.527709960938	1244.972778320312	13.89995098114014	1399.49755859375	1059.764892578125	106.1403121948242	1393.296875	1009.422180175781	66.56221008300781	1278.993530273438	937.4782104492188	56.97495269775391	1075.033569335938	925.5045166015625	-12.48307991027832	1068.161743164062	978.00244140625	128.1213226318359	855.2969970703125	987.2218627929688	97.49253845214844	841.0922241210938	923.2379150390625	68.05814361572266	970.927734375	921.6555786132812	129.85888671875	668.404541015625	994.833740234375	100.3025894165039	752.9393920898438	930.3017578125	152.5135040283203	756.2139892578125	971.5447998046875	102.4380416870117	1404.652099609375	1323.359252929688	93.20826721191406	1346.625732421875	1391.110229492188	88.67780303955078	1077.567138671875	1444.0205078125	34.72780227661133	1072.482299804688	1365.65087890625	168.0000762939453	853.0487670898438	1364.713500976562	143.4329833984375	845.2437744140625	1445.37939453125	114.2106475830078	1009.21875	1448.608520507812	161.8660736083984	668.044677734375	1352.800170898438	195.5654602050781	734.6954345703125	1369.052734375	162.1856536865234	732.9664916992188	1430.960571289062	74.29201507568359	1590.615234375	1228.5380859375	238.2598724365234	1610.543701171875	1095.198486328125	244.6813354492188	1614.796997070312	1187.12744140625	64.68276214599609	1573.735595703125	1083.552124023438	8.298186302185059	938.1482543945312	1008.684936523438	156.9737243652344	953.3032836914062	1312.282470703125	146.3865051269531	946.2943725585938	1061.478515625	171.9479064941406	486.2746887207031	1028.083129882812	128.5909576416016	623.1631469726562	1011.426452636719	-62.45409393310547	95.95452117919922	1042.054809570312	53.55476760864258	285.8419189453125	1024.092041015625	127.5923080444336	35.32973098754883	1101.41162109375	58.21353912353516	39.05147552490234	1140.355346679688	52.20376968383789	53.90081787109375	1030.128784179688	-109.4066314697266	104.0856781005859	1099.55078125	44.69343566894531	479.8406677246094	1337.927490234375	84.48094940185547	740.2927856445312	1377.019165039062	-71.3125	45.02761459350586	1293.728515625	38.60924530029297	354.6866455078125	1320.763793945312	127.2421264648438	43.40182113647461	1247.521118164062	72.26769256591797	44.10187149047852	1206.2138671875	31.97424125671387	36.88351821899414	1317.206787109375	-121.1774749755859	44.40531921386719	1239.49169921875	34.25690460205078	955.8431396484375	1382.138061523438	nan	nan	nan	
3	0.02	-61.37157821655273	1007.627136230469	1276.565185546875	-59.35726928710938	989.89208984375	1102.22412109375	-36.45333099365234	1073.258544921875	1187.177001953125	234.7697448730469	1226.945922851562	1177.480834960938	-37.03031539916992	1197.015747070312	1184.57958984375	37.04082107543945	1434.274291992188	1163.839721679688	182.3501434326172	1332.699096679688	1172.921997070312	-30.05291366577148	1305.63916015625	1245.484741210938	16.00028800964355	1399.462036132812	1060.021728515625	107.9628677368164	1392.96728515625	1009.395324707031	67.63559722900391	1278.80419921875	937.564697265625	57.02985000610352	1074.917358398438	925.6884155273438	-11.95464515686035	1068.17236328125	978.6045532226562	129.4566192626953	855.6510620117188	986.5023193359375	97.7269287109375	841.0906982421875	923.1583251953125	68.07601928710938	970.8162231445312	921.7715454101562	132.3465576171875	668.8324584960938	994.5894775390625	101.001091003418	752.9811401367188	930.4664306640625	154.0845947265625	756.6519165039062	970.4818725585938	105.6268310546875	1404.138305664062	1323.327880859375	96.66680145263672	1346.121337890625	1391.180297851562	91.65938568115234	1076.92529296875	1443.8828125	37.51332473754883	1072.0234375	1365.664672851562	171.0384216308594	852.5504150390625	1363.739135742188	146.5635223388672	844.5708618164062	1444.511474609375	117.1462554931641	1008.570129394531	1448.28759765625	165.0276336669922	667.6810302734375	1351.46044921875	198.7628479003906	734.2963256835938	1367.898193359375	165.2850189208984	732.3372192382812	1429.756591796875	77.90921783447266	1590.366821289062	1228.56640625	241.0993194580078	1609.356567382812	1094.23291015625	248.04345703125	1613.68603515625	1186.118896484375	67.32102203369141	1573.314575195312	1083.658569335938	9.4697265625	937.5927734375	1008.635070800781	158.6012420654297	952.975341796875	1311.951171875	147.5228576660156	946.0972290039062	1061.154418945312	179.6236267089844	487.8006286621094	1027.49267578125	134.0140075683594	624.0507202148438	1011.108459472656	-58.88725280761719	100.837028503418	1041.87255859375	59.93393707275391	288.43408203125	1023.863952636719	128.8735046386719	35.29497528076172	1101.944091796875	59.71514511108398	40.40021514892578	1140.83203125	54.36632919311523	55.62581634521484	1030.69287109375	-105.7410430908203	109.7683715820312	1099.319580078125	46.11189270019531	479.5028076171875	1337.643310546875	86.44631958007812	739.8875122070312	1376.529907226562	-71.38388061523438	45.05556106567383	1293.46484375	39.81534194946289	354.28515625	1320.435668945312	127.2641906738281	43.36522674560547	1247.497802734375	72.19561004638672	43.80989074707031	1206.019165039062	32.01483917236328	36.99979019165039	1317.009033203125	-121.0718688964844	44.45540618896484	1239.444213867188	36.21452713012695	955.3593139648438	1381.83837890625	nan	nan	nan	
4	0.03	-59.47682952880859	1007.076049804688	1276.527099609375	-57.9364128112793	989.0390014648438	1102.315673828125	-34.79709625244141	1073.077026367188	1187.477294921875	237.1164398193359	1226.03466796875	1176.742919921875	-34.79107666015625	1197.095703125	1185.063598632812	40.00712203979492	1434.024047851562	1164.18212890625	184.9674835205078	1331.912231445312	1172.45703125	-27.21414184570312	1305.71484375	1246.04638671875	18.43714904785156	1399.399536132812	1060.309936523438	110.0835418701172	1392.581665039062	1009.304626464844	68.8680419921875	1278.578125	937.6243896484375	57.02298736572266	1074.787109375	925.8798828125	-11.34452629089355	1068.189697265625	979.367919921875	131.0460510253906	856.08984375	985.5816650390625	97.97213745117188	841.0850219726562	923.0447998046875	68.06832885742188	970.6874389648438	921.8873291015625	135.33251953125	669.356201171875	994.2315673828125	101.8164520263672	753.0291137695312	930.6434326171875	155.9271240234375	757.1995239257812	969.18212890625	109.3738403320312	1403.540405273438	1323.248168945312	100.7276306152344	1345.521606445312	1391.20654296875	95.20375823974609	1076.186401367188	1443.699584960938	40.7802848815918	1071.453247070312	1365.682250976562	174.6540069580078	852.0093994140625	1362.609252929688	150.2805023193359	843.8040771484375	1443.489868164062	120.6442794799805	1007.79833984375	1447.87451171875	168.8214569091797	667.2745971679688	1349.850830078125	202.5826416015625	733.8704223632812	1366.495361328125	169.0021667480469	731.6358032226562	1428.343383789062	82.16462707519531	1590.0595703125	1228.555053710938	244.4655303955078	1607.96533203125	1093.066040039062	252.0411682128906	1612.382934570312	1184.913818359375	70.44622039794922	1572.856323242188	1083.74365234375	10.94116401672363	936.968994140625	1008.542419433594	160.5826110839844	952.5712280273438	1311.564453125	148.9663696289062	945.85888671875	1060.767333984375	188.4553070068359	489.6275939941406	1026.764404296875	140.2721405029297	625.1284790039062	1010.681213378906	-54.29438400268555	106.1552658081055	1041.7021484375	67.53876495361328	291.3416137695312	1023.617858886719	131.0246276855469	35.50593185424805	1102.84228515625	62.04413986206055	42.15232086181641	1141.54248046875	57.52406692504883	57.7060661315918	1031.480712890625	-101.0684432983398	115.9576416015625	1099.043212890625	47.74807357788086	479.0701904296875	1337.272827148438	88.68003845214844	739.4260864257812	1375.98486328125	-71.44866180419922	45.11081695556641	1293.174926757812	41.17164993286133	353.82666015625	1320.036499023438	127.2940979003906	43.32650375366211	1247.465576171875	72.10654449462891	43.47251892089844	1205.796997070312	32.05945587158203	37.12680816650391	1316.77978515625	-120.9611511230469	44.51274108886719	1239.404174804688	38.5144157409668	954.8107299804688	1381.472045898438	nan	nan	nan	
